<svg width="516" height="235" viewBox="0 0 516 235" fill="none" xmlns="http://www.w3.org/2000/svg">
<path d="M52.5045 147V74.2727H103.215V88.5483H70.0826V103.463H100.622V117.774H70.0826V132.724H103.215V147H52.5045ZM134.145 147.781C130.121 147.781 126.463 146.74 123.172 144.656C119.881 142.573 117.254 139.448 115.289 135.281C113.324 131.115 112.341 125.942 112.341 119.763C112.341 113.347 113.359 108.068 115.395 103.925C117.431 99.7817 120.094 96.7159 123.385 94.7273C126.7 92.7386 130.263 91.7443 134.074 91.7443C136.939 91.7443 139.389 92.2415 141.425 93.2358C143.461 94.2064 145.142 95.4612 146.468 97C147.793 98.5388 148.799 100.137 149.486 101.794H149.841V74.2727H167.206V147H150.019V138.158H149.486C148.752 139.839 147.71 141.413 146.361 142.881C145.012 144.348 143.319 145.532 141.283 146.432C139.271 147.331 136.891 147.781 134.145 147.781ZM140.182 134.251C142.289 134.251 144.088 133.66 145.58 132.476C147.071 131.268 148.219 129.576 149.024 127.398C149.829 125.22 150.232 122.663 150.232 119.727C150.232 116.744 149.829 114.176 149.024 112.021C148.243 109.867 147.095 108.21 145.58 107.05C144.088 105.89 142.289 105.31 140.182 105.31C138.028 105.31 136.205 105.902 134.713 107.085C133.222 108.269 132.085 109.938 131.304 112.092C130.547 114.247 130.168 116.792 130.168 119.727C130.168 122.663 130.558 125.22 131.34 127.398C132.121 129.576 133.246 131.268 134.713 132.476C136.205 133.66 138.028 134.251 140.182 134.251ZM213.38 123.456V92.4545H230.709V147H214.161V136.844H213.593C212.386 140.182 210.326 142.833 207.414 144.798C204.526 146.74 201.034 147.71 196.938 147.71C193.221 147.71 189.954 146.858 187.137 145.153C184.32 143.449 182.13 141.07 180.567 138.016C179.005 134.938 178.212 131.339 178.188 127.22V92.4545H195.553V123.811C195.577 126.77 196.358 129.102 197.897 130.807C199.436 132.511 201.531 133.364 204.182 133.364C205.911 133.364 207.461 132.985 208.834 132.227C210.231 131.446 211.332 130.321 212.137 128.854C212.966 127.362 213.38 125.563 213.38 123.456ZM259.127 115.892V147H241.762V92.4545H258.275V102.469H258.879C260.086 99.1307 262.146 96.5147 265.058 94.6207C267.97 92.7031 271.438 91.7443 275.463 91.7443C279.298 91.7443 282.624 92.6084 285.441 94.3366C288.282 96.0412 290.484 98.4323 292.046 101.51C293.633 104.564 294.414 108.139 294.39 112.234V147H277.025V115.643C277.049 112.613 276.279 110.246 274.717 108.541C273.178 106.837 271.036 105.984 268.289 105.984C266.466 105.984 264.857 106.387 263.46 107.192C262.087 107.973 261.021 109.098 260.264 110.565C259.53 112.033 259.151 113.809 259.127 115.892ZM330.638 148.03C324.933 148.03 320.009 146.905 315.866 144.656C311.746 142.384 308.574 139.152 306.349 134.962C304.147 130.748 303.046 125.741 303.046 119.94C303.046 114.306 304.159 109.382 306.384 105.168C308.61 100.93 311.746 97.6392 315.795 95.2955C319.843 92.928 324.613 91.7443 330.106 91.7443C333.988 91.7443 337.539 92.348 340.759 93.5554C343.979 94.7628 346.761 96.5502 349.104 98.9176C351.448 101.285 353.271 104.209 354.573 107.689C355.875 111.145 356.526 115.111 356.526 119.585V123.918H309.118V113.832H340.368C340.345 111.986 339.907 110.34 339.055 108.896C338.202 107.452 337.03 106.328 335.539 105.523C334.071 104.694 332.378 104.28 330.461 104.28C328.52 104.28 326.779 104.718 325.241 105.594C323.702 106.446 322.483 107.618 321.583 109.109C320.683 110.577 320.21 112.246 320.163 114.116V124.379C320.163 126.605 320.601 128.558 321.476 130.239C322.352 131.896 323.595 133.186 325.205 134.109C326.815 135.033 328.733 135.494 330.958 135.494C332.497 135.494 333.894 135.281 335.148 134.855C336.403 134.429 337.48 133.802 338.38 132.973C339.279 132.144 339.954 131.126 340.404 129.919L356.349 130.381C355.686 133.955 354.23 137.069 351.981 139.72C349.755 142.348 346.832 144.396 343.209 145.864C339.587 147.308 335.397 148.03 330.638 148.03ZM396.183 92.4545V105.239H361.773V92.4545H396.183ZM368.982 79.3864H386.347V129.848C386.347 130.913 386.513 131.777 386.844 132.44C387.199 133.08 387.708 133.541 388.371 133.825C389.034 134.086 389.827 134.216 390.75 134.216C391.413 134.216 392.112 134.157 392.845 134.038C393.603 133.896 394.171 133.778 394.55 133.683L397.178 146.219C396.349 146.455 395.177 146.751 393.662 147.107C392.171 147.462 390.383 147.687 388.3 147.781C384.228 147.971 380.736 147.497 377.824 146.361C374.936 145.201 372.722 143.402 371.183 140.963C369.668 138.525 368.934 135.459 368.982 131.766V79.3864Z" fill="black"/>
<g filter="url(#filter0_d_12_30)">
<mask id="path-2-outside-1_12_30" maskUnits="userSpaceOnUse" x="-2.77374" y="125.93" width="106.68" height="107.806" fill="black">
<rect fill="white" x="-2.77374" y="125.93" width="106.68" height="107.806"/>
<path fill-rule="evenodd" clip-rule="evenodd" d="M62.7434 142.727C64.2196 141.04 66.7835 140.87 68.47 142.346C70.1564 143.822 70.3269 146.386 68.8508 148.072L49.8621 169.766C49.4983 170.182 49.5404 170.814 49.9559 171.177L52.5224 173.424C52.938 173.788 53.5697 173.745 53.9335 173.33L58.042 168.636C59.5181 166.95 62.082 166.779 63.7685 168.255C65.455 169.731 65.6255 172.295 64.1493 173.982L60.0408 178.676C59.677 179.091 59.7191 179.723 60.1346 180.087L62.7012 182.333C63.1168 182.697 63.7486 182.655 64.1123 182.239L66.3609 179.67C67.8371 177.984 70.4009 177.814 72.0874 179.29C73.7739 180.766 73.9444 183.33 72.4682 185.016L70.2196 187.585C69.8559 188.001 69.8979 188.632 70.3135 188.996L72.8807 191.243C73.2963 191.607 73.928 191.565 74.2918 191.15L74.6803 190.706C76.1565 189.019 78.7204 188.849 80.4069 190.325C82.0934 191.801 82.2638 194.365 80.7877 196.051L71.2533 206.944C71.2457 206.953 71.2381 206.961 71.2304 206.97L53.2735 227.485C51.4547 229.563 48.2958 229.773 46.218 227.954L17.0987 202.466C15.0208 200.648 14.8108 197.489 16.6295 195.411L23.2959 187.795C23.4755 187.59 23.5638 187.32 23.5386 187.049C23.1163 182.504 22.3166 177.615 21.5927 173.189L21.5926 173.189C21.2462 171.071 20.9171 169.059 20.655 167.242C20.1679 163.864 22.6102 160.513 26.0074 159.994C31.7567 159.116 32.7002 167.985 32.7751 173.801C32.7769 173.942 32.7784 174.084 32.7794 174.229C32.7858 175.162 33.9562 175.616 34.5711 174.913L34.5906 174.891L34.6091 174.869L62.7434 142.727Z"/>
</mask>
<path fill-rule="evenodd" clip-rule="evenodd" d="M62.7434 142.727C64.2196 141.04 66.7835 140.87 68.47 142.346C70.1564 143.822 70.3269 146.386 68.8508 148.072L49.8621 169.766C49.4983 170.182 49.5404 170.814 49.9559 171.177L52.5224 173.424C52.938 173.788 53.5697 173.745 53.9335 173.33L58.042 168.636C59.5181 166.95 62.082 166.779 63.7685 168.255C65.455 169.731 65.6255 172.295 64.1493 173.982L60.0408 178.676C59.677 179.091 59.7191 179.723 60.1346 180.087L62.7012 182.333C63.1168 182.697 63.7486 182.655 64.1123 182.239L66.3609 179.67C67.8371 177.984 70.4009 177.814 72.0874 179.29C73.7739 180.766 73.9444 183.33 72.4682 185.016L70.2196 187.585C69.8559 188.001 69.8979 188.632 70.3135 188.996L72.8807 191.243C73.2963 191.607 73.928 191.565 74.2918 191.15L74.6803 190.706C76.1565 189.019 78.7204 188.849 80.4069 190.325C82.0934 191.801 82.2638 194.365 80.7877 196.051L71.2533 206.944C71.2457 206.953 71.2381 206.961 71.2304 206.97L53.2735 227.485C51.4547 229.563 48.2958 229.773 46.218 227.954L17.0987 202.466C15.0208 200.648 14.8108 197.489 16.6295 195.411L23.2959 187.795C23.4755 187.59 23.5638 187.32 23.5386 187.049C23.1163 182.504 22.3166 177.615 21.5927 173.189L21.5926 173.189C21.2462 171.071 20.9171 169.059 20.655 167.242C20.1679 163.864 22.6102 160.513 26.0074 159.994C31.7567 159.116 32.7002 167.985 32.7751 173.801C32.7769 173.942 32.7784 174.084 32.7794 174.229C32.7858 175.162 33.9562 175.616 34.5711 174.913L34.5906 174.891L34.6091 174.869L62.7434 142.727Z" fill="white"/>
<path d="M71.2304 206.97L70.4836 206.305L70.4779 206.311L71.2304 206.97ZM21.5927 173.189L20.6055 173.349L20.6058 173.351L21.5927 173.189ZM21.5926 173.189L22.5798 173.029L22.5795 173.028L21.5926 173.189ZM20.655 167.242L19.6653 167.385L19.6653 167.385L20.655 167.242ZM26.0074 159.994L26.1584 160.983L26.1584 160.983L26.0074 159.994ZM32.7751 173.801L33.775 173.788L32.7751 173.801ZM34.5906 174.891L33.8359 174.234L33.8312 174.24L34.5906 174.891ZM34.6091 174.869L33.8566 174.211L33.8544 174.213L34.6091 174.869ZM62.7012 182.333L63.3599 181.581L62.7012 182.333ZM52.5224 173.424L51.8637 174.176L52.5224 173.424ZM23.5386 187.049L24.5343 186.956L23.5386 187.049ZM32.7794 174.229L33.7793 174.222L32.7794 174.229ZM60.1346 180.087L59.476 180.839L60.1346 180.087ZM49.9559 171.177L50.6146 170.425L49.9559 171.177ZM69.1286 141.593C67.0265 139.753 63.8309 139.966 61.991 142.068L63.4959 143.385C64.6083 142.114 66.5404 141.986 67.8113 143.098L69.1286 141.593ZM69.6032 148.731C71.4432 146.629 71.2307 143.433 69.1286 141.593L67.8113 143.098C69.0822 144.211 69.2107 146.143 68.0983 147.414L69.6032 148.731ZM50.6146 170.425L69.6032 148.731L68.0983 147.414L49.1096 169.108L50.6146 170.425ZM53.181 172.671L50.6146 170.425L49.2973 171.93L51.8637 174.176L53.181 172.671ZM57.2895 167.977L53.181 172.671L54.6859 173.989L58.7944 169.295L57.2895 167.977ZM64.4271 167.503C62.3251 165.663 59.1294 165.875 57.2895 167.977L58.7944 169.295C59.9069 168.024 61.8389 167.895 63.1099 169.008L64.4271 167.503ZM64.9018 174.64C66.7417 172.538 66.5292 169.343 64.4271 167.503L63.1099 169.008C64.3808 170.12 64.5092 172.052 63.3968 173.323L64.9018 174.64ZM60.7933 179.334L64.9018 174.64L63.3968 173.323L59.2883 178.017L60.7933 179.334ZM63.3599 181.581L60.7933 179.334L59.476 180.839L62.0426 183.086L63.3599 181.581ZM65.6084 179.012L63.3599 181.581L64.8648 182.898L67.1134 180.329L65.6084 179.012ZM72.7461 178.537C70.644 176.697 67.4484 176.91 65.6084 179.012L67.1134 180.329C68.2258 179.058 70.1579 178.93 71.4288 180.042L72.7461 178.537ZM73.2207 185.675C75.0606 183.573 74.8481 180.377 72.7461 178.537L71.4288 180.042C72.6997 181.155 72.8282 183.087 71.7158 184.358L73.2207 185.675ZM70.9721 188.244L73.2207 185.675L71.7158 184.358L69.4672 186.927L70.9721 188.244ZM73.5393 190.491L70.9721 188.244L69.6548 189.749L72.2221 191.996L73.5393 190.491ZM75.0443 191.808L75.4328 191.364L73.9279 190.047L73.5393 190.491L75.0443 191.808ZM75.4328 191.364C76.5452 190.093 78.4773 189.965 79.7482 191.077L81.0655 189.572C78.9634 187.732 75.7678 187.945 73.9279 190.047L75.4328 191.364ZM79.7482 191.077C81.0192 192.19 81.1476 194.122 80.0352 195.393L81.5401 196.71C83.3801 194.608 83.1676 191.412 81.0655 189.572L79.7482 191.077ZM80.0352 195.393L70.5009 206.285L72.0058 207.603L81.5401 196.71L80.0352 195.393ZM70.5009 206.285C70.495 206.292 70.4893 206.299 70.4836 206.305L71.9772 207.635C71.9869 207.624 71.9965 207.613 72.0058 207.603L70.5009 206.285ZM54.0259 228.144L71.9829 207.629L70.4779 206.311L52.521 226.827L54.0259 228.144ZM45.5593 228.707C48.0528 230.889 51.8434 230.637 54.0259 228.144L52.521 226.827C51.066 228.489 48.5389 228.657 46.8766 227.202L45.5593 228.707ZM16.4401 203.219L45.5593 228.707L46.8766 227.202L17.7573 201.714L16.4401 203.219ZM15.8771 194.752C13.6946 197.246 13.9466 201.036 16.4401 203.219L17.7573 201.714C16.095 200.259 15.927 197.732 17.382 196.07L15.8771 194.752ZM22.5434 187.136L15.8771 194.752L17.382 196.07L24.0484 188.453L22.5434 187.136ZM20.6058 173.351C21.3309 177.784 22.1244 182.637 22.5428 187.141L24.5343 186.956C24.1082 182.371 23.3024 177.447 22.5795 173.028L20.6058 173.351ZM20.6055 173.349L20.6055 173.349L22.5798 173.029L22.5798 173.029L20.6055 173.349ZM19.6653 167.385C19.929 169.213 20.2597 171.235 20.6058 173.35L22.5795 173.028C22.2327 170.907 21.9053 168.905 21.6448 167.099L19.6653 167.385ZM25.8565 159.006C21.9092 159.608 19.1009 163.471 19.6653 167.385L21.6448 167.099C21.235 164.258 23.3112 161.417 26.1584 160.983L25.8565 159.006ZM33.775 173.788C33.7373 170.863 33.4835 167.058 32.4659 164.066C31.957 162.569 31.2252 161.178 30.1444 160.216C29.0228 159.218 27.5865 158.741 25.8565 159.006L26.1584 160.983C27.303 160.808 28.1406 161.11 28.8152 161.71C29.5307 162.347 30.1174 163.372 30.5724 164.71C31.4825 167.386 31.738 170.923 31.7752 173.814L33.775 173.788ZM33.7793 174.222C33.7783 174.075 33.7769 173.931 33.775 173.788L31.7752 173.814C31.777 173.953 31.7784 174.093 31.7794 174.236L33.7793 174.222ZM33.8312 174.24L33.8117 174.263L35.3304 175.564L35.3499 175.541L33.8312 174.24ZM33.8544 174.213L33.8359 174.234L35.3452 175.547L35.3637 175.525L33.8544 174.213ZM61.991 142.068L33.8566 174.211L35.3615 175.528L63.4959 143.385L61.991 142.068ZM62.0426 183.086C62.8737 183.813 64.1373 183.729 64.8648 182.898L63.3599 181.581L62.0426 183.086ZM51.8637 174.176C52.6949 174.904 53.9584 174.82 54.6859 173.989L53.181 172.671L53.181 172.671L51.8637 174.176ZM24.0484 188.453C24.4069 188.044 24.5851 187.503 24.5343 186.956L22.5428 187.141C22.5425 187.137 22.544 187.135 22.5434 187.136L24.0484 188.453ZM69.4672 186.927C68.7397 187.758 68.8237 189.021 69.6548 189.749L70.9721 188.244L70.9721 188.244L69.4672 186.927ZM31.7794 174.236C31.792 176.049 34.0766 176.996 35.3235 175.572L33.8186 174.255C33.8118 174.262 33.8099 174.262 33.8139 174.26C33.8176 174.258 33.8217 174.256 33.8248 174.256C33.8296 174.255 33.822 174.257 33.8056 174.251C33.7892 174.245 33.7812 174.236 33.7799 174.234C33.7798 174.234 33.7803 174.235 33.7806 174.236C33.781 174.237 33.7794 174.233 33.7793 174.222L31.7794 174.236ZM59.2883 178.017C58.5608 178.848 58.6448 180.112 59.476 180.839L60.7933 179.334L59.2883 178.017ZM72.2221 191.996C73.0532 192.723 74.3168 192.639 75.0443 191.808L73.5393 190.491L72.2221 191.996ZM49.1096 169.108C48.3821 169.939 48.4662 171.202 49.2973 171.93L50.6146 170.425L50.6146 170.425L49.1096 169.108Z" fill="black" mask="url(#path-2-outside-1_12_30)"/>
</g>
<path d="M398 23.7909C398 10.6855 382.894 0 364.5 0C346.004 0 331 10.6855 331 23.7909C331 36.8963 346 47.5848 364.5 47.5848C365.542 47.5848 366.583 47.499 367.628 47.4576C369.917 48.4605 370.386 49.5462 370.438 50.3804C370.962 55.1374 361.428 65.4088 354.549 69.58L355.486 71C355.904 70.9172 395.083 60.7346 397.69 26.5481C397.897 25.7109 397.949 24.8766 398 23.9595V23.8323V23.7909Z" fill="black"/>
<path d="M84.6608 155V154.08C84.6608 153.818 84.7119 153.551 84.8142 153.278C84.9165 153.006 85.0514 152.749 85.219 152.507C85.3866 152.266 85.5685 152.064 85.7645 151.902L86.5656 152.375C86.4065 152.625 86.2758 152.886 86.1736 153.159C86.0741 153.432 86.0244 153.736 86.0244 154.071V155H84.6608ZM86.8128 155V154.08C86.8128 153.818 86.8639 153.551 86.9662 153.278C87.0685 153.006 87.2034 152.749 87.371 152.507C87.5386 152.266 87.7204 152.064 87.9165 151.902L88.7176 152.375C88.5585 152.625 88.4278 152.886 88.3256 153.159C88.2261 153.432 88.1764 153.736 88.1764 154.071V155H86.8128ZM89.8213 161V152.273H91.6665V155.874H95.4122V152.273H97.2531V161H95.4122V157.395H91.6665V161H89.8213ZM100.62 152.273V161H98.7744V152.273H100.62ZM106.172 161L104.391 154.455H106.228L107.242 158.852H107.301L108.358 154.455H110.161L111.235 158.827H111.29L112.287 154.455H114.12L112.343 161H110.421L109.296 156.884H109.215L108.09 161H106.172ZM117.907 161.128C117.234 161.128 116.654 160.991 116.168 160.719C115.685 160.443 115.313 160.054 115.052 159.551C114.79 159.045 114.66 158.447 114.66 157.757C114.66 157.084 114.79 156.493 115.052 155.984C115.313 155.476 115.681 155.08 116.155 154.795C116.633 154.511 117.192 154.369 117.834 154.369C118.266 154.369 118.668 154.439 119.04 154.578C119.415 154.714 119.742 154.92 120.021 155.196C120.302 155.472 120.521 155.818 120.677 156.236C120.833 156.651 120.911 157.136 120.911 157.693V158.192H115.384V157.067H119.202C119.202 156.805 119.146 156.574 119.032 156.372C118.918 156.17 118.761 156.013 118.559 155.899C118.36 155.783 118.128 155.724 117.864 155.724C117.589 155.724 117.344 155.788 117.131 155.916C116.921 156.041 116.756 156.21 116.637 156.423C116.518 156.634 116.457 156.868 116.454 157.126V158.196C116.454 158.52 116.513 158.8 116.633 159.036C116.755 159.271 116.927 159.453 117.148 159.581C117.37 159.709 117.633 159.773 117.937 159.773C118.138 159.773 118.323 159.744 118.491 159.688C118.658 159.631 118.802 159.545 118.921 159.432C119.04 159.318 119.131 159.179 119.194 159.014L120.873 159.125C120.788 159.528 120.613 159.881 120.349 160.182C120.087 160.48 119.749 160.713 119.334 160.881C118.923 161.045 118.447 161.128 117.907 161.128ZM123.911 152.273V161H122.096V152.273H123.911ZM128.323 161.128C127.652 161.128 127.076 160.986 126.593 160.702C126.112 160.415 125.743 160.017 125.485 159.509C125.229 159 125.101 158.415 125.101 157.753C125.101 157.082 125.23 156.494 125.489 155.989C125.75 155.48 126.121 155.084 126.601 154.8C127.081 154.513 127.652 154.369 128.314 154.369C128.885 154.369 129.385 154.473 129.814 154.68C130.243 154.888 130.583 155.179 130.833 155.554C131.083 155.929 131.22 156.369 131.246 156.875H129.533C129.485 156.548 129.357 156.286 129.149 156.087C128.945 155.885 128.676 155.784 128.344 155.784C128.063 155.784 127.817 155.861 127.607 156.014C127.399 156.165 127.237 156.385 127.121 156.675C127.005 156.964 126.946 157.315 126.946 157.727C126.946 158.145 127.003 158.5 127.117 158.793C127.233 159.085 127.397 159.308 127.607 159.462C127.817 159.615 128.063 159.692 128.344 159.692C128.551 159.692 128.737 159.649 128.902 159.564C129.07 159.479 129.208 159.355 129.316 159.193C129.426 159.028 129.499 158.831 129.533 158.601H131.246C131.218 159.101 131.081 159.541 130.837 159.922C130.595 160.3 130.262 160.595 129.836 160.808C129.409 161.021 128.905 161.128 128.323 161.128ZM135.366 161.128C134.704 161.128 134.131 160.987 133.648 160.706C133.168 160.422 132.798 160.027 132.536 159.521C132.275 159.013 132.144 158.423 132.144 157.753C132.144 157.077 132.275 156.486 132.536 155.98C132.798 155.472 133.168 155.077 133.648 154.795C134.131 154.511 134.704 154.369 135.366 154.369C136.028 154.369 136.599 154.511 137.079 154.795C137.562 155.077 137.934 155.472 138.195 155.98C138.457 156.486 138.587 157.077 138.587 157.753C138.587 158.423 138.457 159.013 138.195 159.521C137.934 160.027 137.562 160.422 137.079 160.706C136.599 160.987 136.028 161.128 135.366 161.128ZM135.374 159.722C135.675 159.722 135.927 159.636 136.128 159.466C136.33 159.293 136.482 159.057 136.584 158.759C136.69 158.46 136.742 158.121 136.742 157.74C136.742 157.359 136.69 157.02 136.584 156.722C136.482 156.423 136.33 156.187 136.128 156.014C135.927 155.841 135.675 155.754 135.374 155.754C135.07 155.754 134.815 155.841 134.607 156.014C134.403 156.187 134.248 156.423 134.143 156.722C134.04 157.02 133.989 157.359 133.989 157.74C133.989 158.121 134.04 158.46 134.143 158.759C134.248 159.057 134.403 159.293 134.607 159.466C134.815 159.636 135.07 159.722 135.374 159.722ZM139.768 161V154.455H141.498V155.609H141.574C141.711 155.226 141.938 154.923 142.256 154.702C142.574 154.48 142.955 154.369 143.398 154.369C143.847 154.369 144.229 154.482 144.545 154.706C144.86 154.928 145.07 155.229 145.175 155.609H145.244C145.377 155.234 145.619 154.935 145.968 154.71C146.32 154.483 146.736 154.369 147.217 154.369C147.827 154.369 148.323 154.564 148.704 154.953C149.087 155.339 149.279 155.888 149.279 156.598V161H147.468V156.956C147.468 156.592 147.371 156.32 147.178 156.138C146.985 155.956 146.744 155.865 146.454 155.865C146.124 155.865 145.867 155.97 145.682 156.18C145.498 156.388 145.405 156.662 145.405 157.003V161H143.646V156.918C143.646 156.597 143.553 156.341 143.369 156.151C143.187 155.96 142.947 155.865 142.648 155.865C142.447 155.865 142.265 155.916 142.103 156.018C141.944 156.118 141.817 156.259 141.724 156.44C141.63 156.619 141.583 156.83 141.583 157.071V161H139.768ZM153.696 161.128C153.023 161.128 152.443 160.991 151.957 160.719C151.474 160.443 151.102 160.054 150.841 159.551C150.579 159.045 150.449 158.447 150.449 157.757C150.449 157.084 150.579 156.493 150.841 155.984C151.102 155.476 151.47 155.08 151.945 154.795C152.422 154.511 152.981 154.369 153.623 154.369C154.055 154.369 154.457 154.439 154.829 154.578C155.204 154.714 155.531 154.92 155.81 155.196C156.091 155.472 156.31 155.818 156.466 156.236C156.622 156.651 156.7 157.136 156.7 157.693V158.192H151.173V157.067H154.991C154.991 156.805 154.935 156.574 154.821 156.372C154.707 156.17 154.55 156.013 154.348 155.899C154.149 155.783 153.918 155.724 153.653 155.724C153.378 155.724 153.133 155.788 152.92 155.916C152.71 156.041 152.545 156.21 152.426 156.423C152.307 156.634 152.246 156.868 152.243 157.126V158.196C152.243 158.52 152.302 158.8 152.422 159.036C152.544 159.271 152.716 159.453 152.937 159.581C153.159 159.709 153.422 159.773 153.726 159.773C153.927 159.773 154.112 159.744 154.28 159.688C154.447 159.631 154.591 159.545 154.71 159.432C154.829 159.318 154.92 159.179 154.983 159.014L156.662 159.125C156.577 159.528 156.402 159.881 156.138 160.182C155.876 160.48 155.538 160.713 155.123 160.881C154.712 161.045 154.236 161.128 153.696 161.128ZM164.144 154.455V155.818H160.202V154.455H164.144ZM161.097 152.886H162.912V158.989C162.912 159.156 162.938 159.287 162.989 159.381C163.04 159.472 163.111 159.536 163.202 159.572C163.296 159.609 163.404 159.628 163.526 159.628C163.611 159.628 163.696 159.621 163.782 159.607C163.867 159.589 163.932 159.577 163.978 159.568L164.263 160.919C164.172 160.947 164.044 160.98 163.88 161.017C163.715 161.057 163.514 161.081 163.279 161.089C162.841 161.107 162.458 161.048 162.128 160.915C161.801 160.781 161.547 160.574 161.365 160.293C161.184 160.011 161.094 159.656 161.097 159.227V152.886ZM168.213 161.128C167.551 161.128 166.979 160.987 166.496 160.706C166.016 160.422 165.645 160.027 165.384 159.521C165.122 159.013 164.992 158.423 164.992 157.753C164.992 157.077 165.122 156.486 165.384 155.98C165.645 155.472 166.016 155.077 166.496 154.795C166.979 154.511 167.551 154.369 168.213 154.369C168.875 154.369 169.446 154.511 169.926 154.795C170.409 155.077 170.782 155.472 171.043 155.98C171.304 156.486 171.435 157.077 171.435 157.753C171.435 158.423 171.304 159.013 171.043 159.521C170.782 160.027 170.409 160.422 169.926 160.706C169.446 160.987 168.875 161.128 168.213 161.128ZM168.222 159.722C168.523 159.722 168.774 159.636 168.976 159.466C169.178 159.293 169.33 159.057 169.432 158.759C169.537 158.46 169.59 158.121 169.59 157.74C169.59 157.359 169.537 157.02 169.432 156.722C169.33 156.423 169.178 156.187 168.976 156.014C168.774 155.841 168.523 155.754 168.222 155.754C167.918 155.754 167.662 155.841 167.455 156.014C167.25 156.187 167.095 156.423 166.99 156.722C166.888 157.02 166.837 157.359 166.837 157.74C166.837 158.121 166.888 158.46 166.99 158.759C167.095 159.057 167.25 159.293 167.455 159.466C167.662 159.636 167.918 159.722 168.222 159.722ZM175.427 161V152.273H181.307V153.794H177.272V155.874H181.005V157.395H177.272V159.479H181.324V161H175.427ZM185.152 161.107C184.655 161.107 184.205 160.979 183.801 160.723C183.401 160.464 183.083 160.085 182.847 159.585C182.614 159.082 182.497 158.466 182.497 157.736C182.497 156.986 182.618 156.362 182.86 155.865C183.101 155.365 183.422 154.991 183.823 154.744C184.226 154.494 184.668 154.369 185.148 154.369C185.514 154.369 185.82 154.432 186.064 154.557C186.311 154.679 186.51 154.832 186.661 155.017C186.814 155.199 186.931 155.378 187.01 155.554H187.066V152.273H188.877V161H187.087V159.952H187.01C186.925 160.134 186.804 160.314 186.648 160.493C186.495 160.669 186.294 160.815 186.047 160.932C185.803 161.048 185.505 161.107 185.152 161.107ZM185.728 159.662C186.02 159.662 186.267 159.582 186.469 159.423C186.674 159.261 186.83 159.036 186.938 158.746C187.049 158.456 187.104 158.116 187.104 157.727C187.104 157.338 187.05 157 186.942 156.713C186.834 156.426 186.678 156.205 186.473 156.048C186.269 155.892 186.02 155.814 185.728 155.814C185.429 155.814 185.178 155.895 184.973 156.057C184.769 156.219 184.614 156.443 184.509 156.73C184.404 157.017 184.351 157.349 184.351 157.727C184.351 158.108 184.404 158.445 184.509 158.737C184.617 159.027 184.772 159.254 184.973 159.419C185.178 159.581 185.429 159.662 185.728 159.662ZM194.567 158.213V154.455H196.382V161H194.639V159.811H194.571C194.423 160.195 194.177 160.503 193.834 160.736C193.493 160.969 193.077 161.085 192.585 161.085C192.148 161.085 191.763 160.986 191.43 160.787C191.098 160.588 190.838 160.305 190.65 159.939C190.466 159.572 190.372 159.134 190.369 158.622V154.455H192.185V158.298C192.187 158.685 192.291 158.99 192.496 159.214C192.7 159.439 192.974 159.551 193.318 159.551C193.537 159.551 193.741 159.501 193.932 159.402C194.122 159.3 194.275 159.149 194.392 158.95C194.511 158.751 194.57 158.506 194.567 158.213ZM199.649 157.216V161H197.834V154.455H199.564V155.609H199.641C199.786 155.229 200.029 154.928 200.37 154.706C200.711 154.482 201.124 154.369 201.61 154.369C202.064 154.369 202.461 154.469 202.799 154.668C203.137 154.866 203.399 155.151 203.587 155.52C203.774 155.886 203.868 156.324 203.868 156.832V161H202.053V157.156C202.056 156.756 201.953 156.443 201.746 156.219C201.539 155.991 201.253 155.878 200.889 155.878C200.645 155.878 200.429 155.93 200.242 156.036C200.057 156.141 199.912 156.294 199.807 156.496C199.705 156.695 199.652 156.935 199.649 157.216ZM208.282 161.128C207.609 161.128 207.029 160.991 206.543 160.719C206.06 160.443 205.688 160.054 205.427 159.551C205.165 159.045 205.035 158.447 205.035 157.757C205.035 157.084 205.165 156.493 205.427 155.984C205.688 155.476 206.056 155.08 206.53 154.795C207.008 154.511 207.567 154.369 208.209 154.369C208.641 154.369 209.043 154.439 209.415 154.578C209.79 154.714 210.117 154.92 210.396 155.196C210.677 155.472 210.896 155.818 211.052 156.236C211.208 156.651 211.286 157.136 211.286 157.693V158.192H205.759V157.067H209.577C209.577 156.805 209.521 156.574 209.407 156.372C209.293 156.17 209.136 156.013 208.934 155.899C208.735 155.783 208.503 155.724 208.239 155.724C207.964 155.724 207.719 155.788 207.506 155.916C207.296 156.041 207.131 156.21 207.012 156.423C206.893 156.634 206.832 156.868 206.829 157.126V158.196C206.829 158.52 206.888 158.8 207.008 159.036C207.13 159.271 207.302 159.453 207.523 159.581C207.745 159.709 208.008 159.773 208.312 159.773C208.513 159.773 208.698 159.744 208.866 159.688C209.033 159.631 209.177 159.545 209.296 159.432C209.415 159.318 209.506 159.179 209.569 159.014L211.248 159.125C211.163 159.528 210.988 159.881 210.724 160.182C210.462 160.48 210.124 160.713 209.709 160.881C209.298 161.045 208.822 161.128 208.282 161.128ZM215.952 154.455V155.818H212.011V154.455H215.952ZM212.905 152.886H214.721V158.989C214.721 159.156 214.746 159.287 214.798 159.381C214.849 159.472 214.92 159.536 215.011 159.572C215.104 159.609 215.212 159.628 215.334 159.628C215.42 159.628 215.505 159.621 215.59 159.607C215.675 159.589 215.741 159.577 215.786 159.568L216.072 160.919C215.981 160.947 215.853 160.98 215.688 161.017C215.523 161.057 215.323 161.081 215.087 161.089C214.65 161.107 214.266 161.048 213.937 160.915C213.61 160.781 213.356 160.574 213.174 160.293C212.992 160.011 212.903 159.656 212.905 159.227V152.886ZM218.949 152.273V153.193C218.949 153.455 218.898 153.722 218.796 153.994C218.696 154.264 218.563 154.52 218.395 154.761C218.228 155 218.044 155.203 217.845 155.371L217.044 154.898C217.186 154.673 217.311 154.425 217.419 154.152C217.53 153.879 217.586 153.562 217.586 153.202V152.273H218.949ZM221.093 152.273V153.193C221.093 153.455 221.041 153.722 220.939 153.994C220.84 154.264 220.706 154.52 220.539 154.761C220.371 155 220.186 155.203 219.985 155.371L219.184 154.898C219.328 154.673 219.455 154.425 219.563 154.152C219.674 153.879 219.729 153.562 219.729 153.202V152.273H221.093Z" fill="black"/>
<defs>
<filter id="filter0_d_12_30" x="11.3918" y="138.341" width="74.4005" height="95.851" filterUnits="userSpaceOnUse" color-interpolation-filters="sRGB">
<feFlood flood-opacity="0" result="BackgroundImageFix"/>
<feColorMatrix in="SourceAlpha" type="matrix" values="0 0 0 0 0 0 0 0 0 0 0 0 0 0 0 0 0 0 127 0" result="hardAlpha"/>
<feOffset dy="1"/>
<feGaussianBlur stdDeviation="1.5"/>
<feColorMatrix type="matrix" values="0 0 0 0 0 0 0 0 0 0 0 0 0 0 0 0 0 0 0.35 0"/>
<feBlend mode="normal" in2="BackgroundImageFix" result="effect1_dropShadow_12_30"/>
<feBlend mode="normal" in="SourceGraphic" in2="effect1_dropShadow_12_30" result="shape"/>
</filter>
</defs>
</svg>
