<svg width="222" height="74" viewBox="0 0 222 74" fill="none" xmlns="http://www.w3.org/2000/svg">
<g filter="url(#filter0_dd_141_71)">
<rect x="4.99121" y="4" width="208.612" height="62" rx="31" fill="#095CA8"/>
</g>
<path d="M55.8914 42.168C55.5714 42.168 55.3234 42.08 55.1474 41.904C54.9874 41.712 54.9074 41.456 54.9074 41.136V26.088C54.9074 25.752 54.9954 25.504 55.1714 25.344C55.3474 25.168 55.5954 25.08 55.9154 25.08H61.6034C63.4114 25.08 64.8034 25.504 65.7794 26.352C66.7554 27.2 67.2434 28.408 67.2434 29.976C67.2434 30.968 67.0194 31.832 66.5714 32.568C66.1394 33.288 65.4994 33.84 64.6514 34.224C63.8034 34.592 62.7874 34.776 61.6034 34.776L61.8434 34.464H62.3234C62.9474 34.464 63.4914 34.624 63.9554 34.944C64.4194 35.264 64.8434 35.776 65.2274 36.48L67.5314 40.776C67.6594 41 67.7154 41.224 67.6994 41.448C67.6994 41.656 67.6274 41.832 67.4834 41.976C67.3394 42.104 67.1314 42.168 66.8594 42.168C66.5874 42.168 66.3634 42.104 66.1874 41.976C66.0114 41.848 65.8594 41.664 65.7314 41.424L63.1154 36.576C62.7474 35.888 62.3234 35.432 61.8434 35.208C61.3634 34.968 60.7314 34.848 59.9474 34.848H56.8754V41.136C56.8754 41.456 56.7954 41.712 56.6354 41.904C56.4754 42.08 56.2274 42.168 55.8914 42.168ZM56.8754 33.288H61.3154C62.6274 33.288 63.6194 33.016 64.2914 32.472C64.9634 31.912 65.2994 31.08 65.2994 29.976C65.2994 28.904 64.9634 28.096 64.2914 27.552C63.6194 26.992 62.6274 26.712 61.3154 26.712H56.8754V33.288ZM75.6963 42.216C74.4643 42.216 73.4003 41.976 72.5043 41.496C71.6243 41 70.9363 40.304 70.4403 39.408C69.9603 38.512 69.7203 37.44 69.7203 36.192C69.7203 34.976 69.9603 33.92 70.4403 33.024C70.9203 32.112 71.5763 31.4 72.4083 30.888C73.2563 30.376 74.2323 30.12 75.3363 30.12C76.1203 30.12 76.8243 30.256 77.4483 30.528C78.0723 30.784 78.6003 31.16 79.0323 31.656C79.4803 32.152 79.8163 32.752 80.0403 33.456C80.2803 34.16 80.4003 34.952 80.4003 35.832C80.4003 36.088 80.3283 36.28 80.1843 36.408C80.0403 36.52 79.8323 36.576 79.5603 36.576H71.2083V35.304H79.1043L78.7203 35.616C78.7203 34.752 78.5923 34.024 78.3363 33.432C78.0803 32.824 77.7043 32.36 77.2083 32.04C76.7283 31.72 76.1203 31.56 75.3843 31.56C74.5683 31.56 73.8723 31.752 73.2963 32.136C72.7363 32.504 72.3123 33.024 72.0243 33.696C71.7363 34.352 71.5923 35.12 71.5923 36V36.144C71.5923 37.616 71.9443 38.736 72.6483 39.504C73.3683 40.272 74.3843 40.656 75.6963 40.656C76.2403 40.656 76.7763 40.584 77.3043 40.44C77.8483 40.296 78.3763 40.056 78.8883 39.72C79.1123 39.576 79.3123 39.512 79.4883 39.528C79.6803 39.528 79.8323 39.584 79.9443 39.696C80.0563 39.792 80.1283 39.92 80.1603 40.08C80.2083 40.224 80.1923 40.384 80.1123 40.56C80.0483 40.736 79.9123 40.888 79.7043 41.016C79.1763 41.4 78.5523 41.696 77.8323 41.904C77.1123 42.112 76.4003 42.216 75.6963 42.216ZM86.8857 42.216C86.0857 42.216 85.3657 42.064 84.7257 41.76C84.1017 41.44 83.6057 41.008 83.2377 40.464C82.8697 39.92 82.6857 39.312 82.6857 38.64C82.6857 37.776 82.9017 37.096 83.3337 36.6C83.7817 36.104 84.5097 35.752 85.5177 35.544C86.5417 35.336 87.9337 35.232 89.6937 35.232H90.7737V36.504H89.7177C88.4217 36.504 87.3977 36.568 86.6457 36.696C85.9097 36.808 85.3897 37.008 85.0857 37.296C84.7977 37.584 84.6537 37.992 84.6537 38.52C84.6537 39.176 84.8777 39.712 85.3257 40.128C85.7897 40.544 86.4137 40.752 87.1977 40.752C87.8377 40.752 88.3977 40.6 88.8777 40.296C89.3737 39.992 89.7577 39.576 90.0297 39.048C90.3177 38.52 90.4617 37.912 90.4617 37.224V34.488C90.4617 33.496 90.2617 32.784 89.8617 32.352C89.4617 31.904 88.8057 31.68 87.8937 31.68C87.3337 31.68 86.7737 31.752 86.2137 31.896C85.6537 32.04 85.0617 32.272 84.4377 32.592C84.2137 32.704 84.0217 32.744 83.8617 32.712C83.7017 32.664 83.5737 32.576 83.4777 32.448C83.3817 32.32 83.3257 32.176 83.3097 32.016C83.2937 31.84 83.3257 31.672 83.4057 31.512C83.5017 31.352 83.6457 31.224 83.8377 31.128C84.5417 30.776 85.2377 30.52 85.9257 30.36C86.6137 30.2 87.2697 30.12 87.8937 30.12C88.9017 30.12 89.7337 30.288 90.3897 30.624C91.0457 30.944 91.5337 31.44 91.8537 32.112C92.1737 32.768 92.3337 33.616 92.3337 34.656V41.16C92.3337 41.48 92.2537 41.728 92.0937 41.904C91.9497 42.08 91.7337 42.168 91.4457 42.168C91.1417 42.168 90.9097 42.08 90.7497 41.904C90.5897 41.728 90.5097 41.48 90.5097 41.16V39.288H90.7257C90.5977 39.896 90.3497 40.416 89.9817 40.848C89.6297 41.28 89.1897 41.616 88.6617 41.856C88.1337 42.096 87.5417 42.216 86.8857 42.216ZM100.38 42.216C99.3403 42.216 98.4283 41.968 97.6443 41.472C96.8763 40.976 96.2763 40.28 95.8443 39.384C95.4283 38.472 95.2203 37.4 95.2203 36.168C95.2203 34.92 95.4283 33.848 95.8443 32.952C96.2763 32.04 96.8763 31.344 97.6443 30.864C98.4283 30.368 99.3403 30.12 100.38 30.12C101.436 30.12 102.34 30.384 103.092 30.912C103.844 31.44 104.348 32.152 104.604 33.048H104.34V25.896C104.34 25.576 104.42 25.336 104.58 25.176C104.756 25 105.004 24.912 105.324 24.912C105.628 24.912 105.86 25 106.02 25.176C106.196 25.336 106.284 25.576 106.284 25.896V41.16C106.284 41.48 106.204 41.728 106.044 41.904C105.884 42.08 105.644 42.168 105.324 42.168C105.02 42.168 104.78 42.08 104.604 41.904C104.444 41.728 104.364 41.48 104.364 41.16V38.88L104.628 39.216C104.372 40.128 103.86 40.856 103.092 41.4C102.34 41.944 101.436 42.216 100.38 42.216ZM100.788 40.656C101.508 40.656 102.14 40.48 102.684 40.128C103.228 39.776 103.644 39.264 103.932 38.592C104.236 37.92 104.388 37.112 104.388 36.168C104.388 34.712 104.06 33.6 103.404 32.832C102.764 32.064 101.892 31.68 100.788 31.68C100.052 31.68 99.4123 31.856 98.8683 32.208C98.3403 32.544 97.9243 33.048 97.6203 33.72C97.3323 34.376 97.1883 35.192 97.1883 36.168C97.1883 37.608 97.5163 38.72 98.1723 39.504C98.8283 40.272 99.7003 40.656 100.788 40.656ZM110.94 42.168C110.62 42.168 110.38 42.08 110.22 41.904C110.06 41.728 109.98 41.48 109.98 41.16V31.152C109.98 30.832 110.06 30.592 110.22 30.432C110.38 30.256 110.612 30.168 110.916 30.168C111.22 30.168 111.452 30.256 111.612 30.432C111.788 30.592 111.876 30.832 111.876 31.152V33.264L111.612 32.928C111.916 32.032 112.404 31.344 113.076 30.864C113.764 30.368 114.58 30.12 115.524 30.12C116.516 30.12 117.316 30.36 117.924 30.84C118.548 31.304 118.964 32.032 119.172 33.024H118.812C119.1 32.128 119.612 31.424 120.348 30.912C121.1 30.384 121.972 30.12 122.964 30.12C123.844 30.12 124.564 30.288 125.124 30.624C125.7 30.96 126.132 31.472 126.42 32.16C126.708 32.832 126.852 33.688 126.852 34.728V41.16C126.852 41.48 126.764 41.728 126.588 41.904C126.428 42.08 126.188 42.168 125.868 42.168C125.564 42.168 125.324 42.08 125.148 41.904C124.988 41.728 124.908 41.48 124.908 41.16V34.824C124.908 33.752 124.724 32.968 124.356 32.472C123.988 31.96 123.364 31.704 122.484 31.704C121.524 31.704 120.764 32.04 120.204 32.712C119.66 33.368 119.388 34.264 119.388 35.4V41.16C119.388 41.48 119.3 41.728 119.124 41.904C118.964 42.08 118.724 42.168 118.404 42.168C118.1 42.168 117.86 42.08 117.684 41.904C117.524 41.728 117.444 41.48 117.444 41.16V34.824C117.444 33.752 117.252 32.968 116.868 32.472C116.5 31.96 115.884 31.704 115.02 31.704C114.06 31.704 113.3 32.04 112.74 32.712C112.196 33.368 111.924 34.264 111.924 35.4V41.16C111.924 41.832 111.596 42.168 110.94 42.168ZM135.335 42.216C134.199 42.216 133.215 41.968 132.383 41.472C131.551 40.976 130.903 40.28 130.439 39.384C129.991 38.472 129.767 37.4 129.767 36.168C129.767 35.24 129.895 34.408 130.151 33.672C130.407 32.92 130.783 32.28 131.279 31.752C131.775 31.224 132.359 30.824 133.031 30.552C133.719 30.264 134.487 30.12 135.335 30.12C136.471 30.12 137.455 30.368 138.287 30.864C139.119 31.36 139.759 32.064 140.207 32.976C140.671 33.872 140.903 34.936 140.903 36.168C140.903 37.096 140.775 37.928 140.519 38.664C140.263 39.4 139.887 40.04 139.391 40.584C138.895 41.112 138.303 41.52 137.615 41.808C136.943 42.08 136.183 42.216 135.335 42.216ZM135.335 40.656C136.055 40.656 136.687 40.48 137.231 40.128C137.775 39.776 138.191 39.264 138.479 38.592C138.783 37.92 138.935 37.112 138.935 36.168C138.935 34.712 138.607 33.6 137.951 32.832C137.311 32.064 136.439 31.68 135.335 31.68C134.599 31.68 133.959 31.856 133.415 32.208C132.887 32.544 132.471 33.048 132.167 33.72C131.879 34.376 131.735 35.192 131.735 36.168C131.735 37.608 132.063 38.72 132.719 39.504C133.375 40.272 134.247 40.656 135.335 40.656ZM144.807 42.168C144.487 42.168 144.239 42.08 144.063 41.904C143.903 41.728 143.823 41.48 143.823 41.16V31.152C143.823 30.832 143.903 30.592 144.063 30.432C144.223 30.256 144.455 30.168 144.759 30.168C145.063 30.168 145.295 30.256 145.455 30.432C145.631 30.592 145.719 30.832 145.719 31.152V33.096H145.479C145.735 32.152 146.223 31.424 146.943 30.912C147.663 30.4 148.551 30.128 149.607 30.096C149.847 30.08 150.039 30.136 150.183 30.264C150.327 30.376 150.407 30.576 150.423 30.864C150.439 31.136 150.375 31.352 150.231 31.512C150.087 31.672 149.863 31.768 149.559 31.8L149.175 31.848C148.087 31.944 147.247 32.296 146.655 32.904C146.079 33.496 145.791 34.312 145.791 35.352V41.16C145.791 41.48 145.703 41.728 145.527 41.904C145.367 42.08 145.127 42.168 144.807 42.168ZM157.54 42.216C156.308 42.216 155.244 41.976 154.348 41.496C153.468 41 152.78 40.304 152.284 39.408C151.804 38.512 151.564 37.44 151.564 36.192C151.564 34.976 151.804 33.92 152.284 33.024C152.764 32.112 153.42 31.4 154.252 30.888C155.1 30.376 156.076 30.12 157.18 30.12C157.964 30.12 158.668 30.256 159.292 30.528C159.916 30.784 160.444 31.16 160.876 31.656C161.324 32.152 161.66 32.752 161.884 33.456C162.124 34.16 162.244 34.952 162.244 35.832C162.244 36.088 162.172 36.28 162.028 36.408C161.884 36.52 161.676 36.576 161.404 36.576H153.052V35.304H160.948L160.564 35.616C160.564 34.752 160.436 34.024 160.18 33.432C159.924 32.824 159.548 32.36 159.052 32.04C158.572 31.72 157.964 31.56 157.228 31.56C156.412 31.56 155.716 31.752 155.14 32.136C154.58 32.504 154.156 33.024 153.868 33.696C153.58 34.352 153.436 35.12 153.436 36V36.144C153.436 37.616 153.788 38.736 154.492 39.504C155.212 40.272 156.228 40.656 157.54 40.656C158.084 40.656 158.62 40.584 159.148 40.44C159.692 40.296 160.22 40.056 160.732 39.72C160.956 39.576 161.156 39.512 161.332 39.528C161.524 39.528 161.676 39.584 161.788 39.696C161.9 39.792 161.972 39.92 162.004 40.08C162.052 40.224 162.036 40.384 161.956 40.56C161.892 40.736 161.756 40.888 161.548 41.016C161.02 41.4 160.396 41.696 159.676 41.904C158.956 42.112 158.244 42.216 157.54 42.216Z" fill="black"/>
<defs>
<filter id="filter0_dd_141_71" x="0.991211" y="0" width="220.612" height="74" filterUnits="userSpaceOnUse" color-interpolation-filters="sRGB">
<feFlood flood-opacity="0" result="BackgroundImageFix"/>
<feColorMatrix in="SourceAlpha" type="matrix" values="0 0 0 0 0 0 0 0 0 0 0 0 0 0 0 0 0 0 127 0" result="hardAlpha"/>
<feOffset dx="4"/>
<feGaussianBlur stdDeviation="2"/>
<feComposite in2="hardAlpha" operator="out"/>
<feColorMatrix type="matrix" values="0 0 0 0 0 0 0 0 0 0 0 0 0 0 0 0 0 0 0.25 0"/>
<feBlend mode="normal" in2="BackgroundImageFix" result="effect1_dropShadow_141_71"/>
<feColorMatrix in="SourceAlpha" type="matrix" values="0 0 0 0 0 0 0 0 0 0 0 0 0 0 0 0 0 0 127 0" result="hardAlpha"/>
<feOffset dy="4"/>
<feGaussianBlur stdDeviation="2"/>
<feComposite in2="hardAlpha" operator="out"/>
<feColorMatrix type="matrix" values="0 0 0 0 0 0 0 0 0 0 0 0 0 0 0 0 0 0 0.25 0"/>
<feBlend mode="normal" in2="effect1_dropShadow_141_71" result="effect2_dropShadow_141_71"/>
<feBlend mode="normal" in="SourceGraphic" in2="effect2_dropShadow_141_71" result="shape"/>
</filter>
</defs>
</svg>
